<?xml version="1.0" encoding="UTF-8" standalone="no"?>
<!-- Created with Inkscape (http://www.inkscape.org/) -->

<svg
   xmlns:dc="http://purl.org/dc/elements/1.1/"
   xmlns:cc="http://creativecommons.org/ns#"
   xmlns:rdf="http://www.w3.org/1999/02/22-rdf-syntax-ns#"
   xmlns:svg="http://www.w3.org/2000/svg"
   xmlns="http://www.w3.org/2000/svg"
   xmlns:sodipodi="http://sodipodi.sourceforge.net/DTD/sodipodi-0.dtd"
   xmlns:inkscape="http://www.inkscape.org/namespaces/inkscape"
   width="80"
   height="120"
   id="svg2"
   version="1.1"
   inkscape:version="0.48.5 r10040"
   sodipodi:docname="sprite_example2.svg"
   inkscape:export-filename="C:\Users\drk\Dropbox\projects\game_engine\examples\sprite\sprite_example2.png"
   inkscape:export-xdpi="90"
   inkscape:export-ydpi="90">
  <defs
     id="defs4" />
  <sodipodi:namedview
     id="base"
     pagecolor="#ffffff"
     bordercolor="#666666"
     borderopacity="1.0"
     inkscape:pageopacity="0.0"
     inkscape:pageshadow="2"
     inkscape:zoom="5.6"
     inkscape:cx="14.961844"
     inkscape:cy="59.287839"
     inkscape:document-units="px"
     inkscape:current-layer="layer1"
     showgrid="true"
     showguides="true"
     inkscape:guide-bbox="true"
     inkscape:window-width="1920"
     inkscape:window-height="1005"
     inkscape:window-x="-9"
     inkscape:window-y="-9"
     inkscape:window-maximized="1">
    <inkscape:grid
       type="xygrid"
       id="grid2985"
       empspacing="5"
       visible="true"
       enabled="true"
       snapvisiblegridlinesonly="true" />
    <sodipodi:guide
       orientation="0,1"
       position="-16,40"
       id="guide2987" />
    <sodipodi:guide
       orientation="0,1"
       position="-16,80"
       id="guide2989" />
    <sodipodi:guide
       orientation="1,0"
       position="40,75"
       id="guide2991" />
  </sodipodi:namedview>
  <metadata
     id="metadata7">
    <rdf:RDF>
      <cc:Work
         rdf:about="">
        <dc:format>image/svg+xml</dc:format>
        <dc:type
           rdf:resource="http://purl.org/dc/dcmitype/StillImage" />
        <dc:title></dc:title>
      </cc:Work>
    </rdf:RDF>
  </metadata>
  <g
     inkscape:label="Layer 1"
     inkscape:groupmode="layer"
     id="layer1"
     transform="translate(0,-932.36218)">
    <path
       sodipodi:type="spiral"
       style="fill:none;stroke:#000000;stroke-width:1px;stroke-linecap:butt;stroke-linejoin:miter;stroke-opacity:1"
       id="path2993"
       sodipodi:cx="5"
       sodipodi:cy="10"
       sodipodi:expansion="1"
       sodipodi:revolution="3.005188"
       sodipodi:radius="21.249891"
       sodipodi:argument="-18.064157"
       sodipodi:t0="0"
       d="M 5,10 C 5.752076,10.752076 4.3572638,11.384831 3.7499995,11.25 2.1043508,10.884614 1.8398029,8.7767435 2.5000003,7.4999989 3.6809385,5.2162025 6.7475779,4.948657 8.7500016,6.2500005 11.688639,8.1597743 11.961492,12.29597 9.9999994,15.000002 7.3856385,18.604052 2.1470943,18.879737 -1.2500027,16.249999 -5.5249025,12.940742 -5.8021713,6.5860858 -2.4999991,2.4999968 1.4993739,-2.4488045 8.9772165,-2.7270304 13.750004,1.2500011 19.374568,5.9367949 19.653412,14.541949 14.999999,20.000004 9.627449,26.301545 -0.10763546,26.58081 -6.2500048,21.249999 -13.229355,15.192792 -13.508918,4.3260074 -7.4999985,-2.5000053 -0.75889938,-10.15776 11.240839,-10.437541 18.750006,-3.7499983 c 8.336599,7.4244403 8.616545,20.5580513 1.249992,28.7500043 -0.154472,0.17178 -0.311754,0.341033 -0.471758,0.507673"
       transform="matrix(1.0503238,0,0,1.1433165,52.902351,1022.6509)" />
    <path
       transform="matrix(0.47363754,-0.91842834,0.89299701,0.57720212,7.4495492,1033.0947)"
       d="M 5,10 C 5.752076,10.752076 4.3572638,11.384831 3.7499995,11.25 2.1043508,10.884614 1.8398029,8.7767435 2.5000003,7.4999989 3.6809385,5.2162025 6.7475779,4.948657 8.7500016,6.2500005 11.688639,8.1597743 11.961492,12.29597 9.9999994,15.000002 7.3856385,18.604052 2.1470943,18.879737 -1.2500027,16.249999 -5.5249025,12.940742 -5.8021713,6.5860858 -2.4999991,2.4999968 1.4993739,-2.4488045 8.9772165,-2.7270304 13.750004,1.2500011 19.374568,5.9367949 19.653412,14.541949 14.999999,20.000004 9.627449,26.301545 -0.10763546,26.58081 -6.2500048,21.249999 -13.229355,15.192792 -13.508918,4.3260074 -7.4999985,-2.5000053 -0.75889938,-10.15776 11.240839,-10.437541 18.750006,-3.7499983 c 8.336599,7.4244403 8.616545,20.5580513 1.249992,28.7500043 -0.154472,0.17178 -0.311754,0.341033 -0.471758,0.507673"
       sodipodi:t0="0"
       sodipodi:argument="-18.064157"
       sodipodi:radius="21.249891"
       sodipodi:revolution="3.005188"
       sodipodi:expansion="1"
       sodipodi:cy="10"
       sodipodi:cx="5"
       id="path2995"
       style="fill:none;stroke:#000000;stroke-width:1px;stroke-linecap:butt;stroke-linejoin:miter;stroke-opacity:1"
       sodipodi:type="spiral" />
    <path
       sodipodi:type="spiral"
       style="fill:none;stroke:#000000;stroke-width:1px;stroke-linecap:butt;stroke-linejoin:miter;stroke-opacity:1"
       id="path2997"
       sodipodi:cx="5"
       sodipodi:cy="10"
       sodipodi:expansion="1"
       sodipodi:revolution="3.005188"
       sodipodi:radius="21.249891"
       sodipodi:argument="-18.064157"
       sodipodi:t0="0"
       d="M 5,10 C 5.752076,10.752076 4.3572638,11.384831 3.7499995,11.25 2.1043508,10.884614 1.8398029,8.7767435 2.5000003,7.4999989 3.6809385,5.2162025 6.7475779,4.948657 8.7500016,6.2500005 11.688639,8.1597743 11.961492,12.29597 9.9999994,15.000002 7.3856385,18.604052 2.1470943,18.879737 -1.2500027,16.249999 -5.5249025,12.940742 -5.8021713,6.5860858 -2.4999991,2.4999968 1.4993739,-2.4488045 8.9772165,-2.7270304 13.750004,1.2500011 19.374568,5.9367949 19.653412,14.541949 14.999999,20.000004 9.627449,26.301545 -0.10763546,26.58081 -6.2500048,21.249999 -13.229355,15.192792 -13.508918,4.3260074 -7.4999985,-2.5000053 -0.75889938,-10.15776 11.240839,-10.437541 18.750006,-3.7499983 c 8.336599,7.4244403 8.616545,20.5580513 1.249992,28.7500043 -0.154472,0.17178 -0.311754,0.341033 -0.471758,0.507673"
       transform="matrix(-0.56810746,-0.88791892,0.96254046,-0.49508486,55.18502,1003.5447)" />
    <path
       transform="matrix(-1.0519636,0.0533499,0.05439508,-1.1554777,26.56731,1001.6178)"
       d="M 5,10 C 5.752076,10.752076 4.3572638,11.384831 3.7499995,11.25 2.1043508,10.884614 1.8398029,8.7767435 2.5000003,7.4999989 3.6809385,5.2162025 6.7475779,4.948657 8.7500016,6.2500005 11.688639,8.1597743 11.961492,12.29597 9.9999994,15.000002 7.3856385,18.604052 2.1470943,18.879737 -1.2500027,16.249999 -5.5249025,12.940742 -5.8021713,6.5860858 -2.4999991,2.4999968 1.4993739,-2.4488045 8.9772165,-2.7270304 13.750004,1.2500011 19.374568,5.9367949 19.653412,14.541949 14.999999,20.000004 9.627449,26.301545 -0.10763546,26.58081 -6.2500048,21.249999 -13.229355,15.192792 -13.508918,4.3260074 -7.4999985,-2.5000053 -0.75889938,-10.15776 11.240839,-10.437541 18.750006,-3.7499983 c 8.336599,7.4244403 8.616545,20.5580513 1.249992,28.7500043 -0.154472,0.17178 -0.311754,0.341033 -0.471758,0.507673"
       sodipodi:t0="0"
       sodipodi:argument="-18.064157"
       sodipodi:radius="21.249891"
       sodipodi:revolution="3.005188"
       sodipodi:expansion="1"
       sodipodi:cy="10"
       sodipodi:cx="5"
       id="path3001"
       style="fill:none;stroke:#000000;stroke-width:1px;stroke-linecap:butt;stroke-linejoin:miter;stroke-opacity:1"
       sodipodi:type="spiral" />
    <path
       sodipodi:type="spiral"
       style="fill:none;stroke:#000000;stroke-width:1px;stroke-linecap:butt;stroke-linejoin:miter;stroke-opacity:1"
       id="path3003"
       sodipodi:cx="5"
       sodipodi:cy="10"
       sodipodi:expansion="1"
       sodipodi:revolution="3.005188"
       sodipodi:radius="21.249891"
       sodipodi:argument="-18.064157"
       sodipodi:t0="0"
       d="M 5,10 C 5.752076,10.752076 4.3572638,11.384831 3.7499995,11.25 2.1043508,10.884614 1.8398029,8.7767435 2.5000003,7.4999989 3.6809385,5.2162025 6.7475779,4.948657 8.7500016,6.2500005 11.688639,8.1597743 11.961492,12.29597 9.9999994,15.000002 7.3856385,18.604052 2.1470943,18.879737 -1.2500027,16.249999 -5.5249025,12.940742 -5.8021713,6.5860858 -2.4999991,2.4999968 1.4993739,-2.4488045 8.9772165,-2.7270304 13.750004,1.2500011 19.374568,5.9367949 19.653412,14.541949 14.999999,20.000004 9.627449,26.301545 -0.10763546,26.58081 -6.2500048,21.249999 -13.229355,15.192792 -13.508918,4.3260074 -7.4999985,-2.5000053 -0.75889938,-10.15776 11.240839,-10.437541 18.750006,-3.7499983 c 8.336599,7.4244403 8.616545,20.5580513 1.249992,28.7500043 -0.154472,0.17178 -0.311754,0.341033 -0.471758,0.507673"
       transform="matrix(-0.47363752,0.9184283,-0.89299705,-0.57720214,72.550451,951.62971)" />
    <path
       transform="matrix(0.56810743,0.8879189,-0.96254048,0.49508489,24.81498,941.17961)"
       d="M 5,10 C 5.752076,10.752076 4.3572638,11.384831 3.7499995,11.25 2.1043508,10.884614 1.8398029,8.7767435 2.5000003,7.4999989 3.6809385,5.2162025 6.7475779,4.948657 8.7500016,6.2500005 11.688639,8.1597743 11.961492,12.29597 9.9999994,15.000002 7.3856385,18.604052 2.1470943,18.879737 -1.2500027,16.249999 -5.5249025,12.940742 -5.8021713,6.5860858 -2.4999991,2.4999968 1.4993739,-2.4488045 8.9772165,-2.7270304 13.750004,1.2500011 19.374568,5.9367949 19.653412,14.541949 14.999999,20.000004 9.627449,26.301545 -0.10763546,26.58081 -6.2500048,21.249999 -13.229355,15.192792 -13.508918,4.3260074 -7.4999985,-2.5000053 -0.75889938,-10.15776 11.240839,-10.437541 18.750006,-3.7499983 c 8.336599,7.4244403 8.616545,20.5580513 1.249992,28.7500043 -0.154472,0.17178 -0.311754,0.341033 -0.471758,0.507673"
       sodipodi:t0="0"
       sodipodi:argument="-18.064157"
       sodipodi:radius="21.249891"
       sodipodi:revolution="3.005188"
       sodipodi:expansion="1"
       sodipodi:cy="10"
       sodipodi:cx="5"
       id="path3005"
       style="fill:none;stroke:#000000;stroke-width:1px;stroke-linecap:butt;stroke-linejoin:miter;stroke-opacity:1"
       sodipodi:type="spiral" />
  </g>
</svg>
